<?xml version="1.0" encoding="UTF-8"?>
<svg width="29px" height="28px" viewBox="0 0 29 28" version="1.1" xmlns="http://www.w3.org/2000/svg" xmlns:xlink="http://www.w3.org/1999/xlink">
    <!-- Generator: sketchtool 56.3 (101010) - https://sketch.com -->
    <title>4AC49F36-794E-434C-85AD-5AFABDB84745</title>
    <desc>Created with sketchtool.</desc>
    <g id="UAT-Final-Designs" stroke="none" stroke-width="1" fill="none" fill-rule="evenodd">
        <g id="Desktop-Booking-Confirmation-Page-Round-Trip-Codeshare" transform="translate(-783.000000, -395.000000)">
            <g id="Flight-Details-Summary" transform="translate(78.000000, 160.000000)">
                <rect id="Rectangle-5-Copy-6" stroke="#E0E0E0" fill="#FFFFFF" x="0.5" y="0.5" width="1123" height="343" rx="4"></rect>
                <g id="Multiple-Actions" transform="translate(20.000000, 191.000000)">
                    <g id="View-Itinerary" transform="translate(629.333333, 0.000000)">
                        <rect id="Rectangle-5-Copy-10" fill="#F4F4F8" x="0" y="33" width="140" height="100" rx="4"></rect>
                        <g id="Group-34-Copy" transform="translate(33.000000, 0.000000)" fill="#027BFF" fill-rule="nonzero" stroke="#027BFF" stroke-width="0.5">
                            <g id="icons-/-Download-blue" transform="translate(23.000000, 0.000000)">
                                <path d="M26.3346563,61.4652924 C26.6092604,61.4652924 26.8333333,61.7102939 26.8333333,62.0113987 L26.8333333,69.1205604 C26.8333333,69.4211504 26.6092604,69.6666667 26.3346563,69.6666667 L2.83201042,69.6666667 C2.55740625,69.6666667 2.33333333,69.4211504 2.33333333,69.1205604 L2.33333333,62.0113987 C2.33333333,61.7102939 2.55740625,61.4652924 2.83201042,61.4652924 C3.10661458,61.4652924 3.33119792,61.7102939 3.33119792,62.0113987 L3.33119792,68.549748 L25.8099479,68.5754835 L25.8354688,62.0113987 C25.8354688,61.7102939 26.0595417,61.4652924 26.3346563,61.4652924 Z M14.2551354,64.4323842 L9.42353125,58.23014 C9.21119792,57.9918297 9.20507292,57.6557246 9.40872917,57.4292527 C9.49754167,57.3304285 9.61238542,57.2758694 9.73284375,57.2758694 C9.85330208,57.2758694 9.96865625,57.3304285 10.0569583,57.4292527 L14.0683229,62.5768581 L14.1147708,48.0445622 C14.1147708,47.7439721 14.3250625,47.5 14.5828229,47.5 C14.8405833,47.5 15.050875,47.7439721 15.050875,48.0445622 L15.050875,62.5598727 L19.1229792,57.4112378 C19.1995417,57.3263108 19.3159167,57.2758694 19.4328021,57.2758694 C19.55275,57.2758694 19.6675938,57.3304285 19.7558958,57.4292527 C19.9564896,57.6521217 19.9564896,57.9887414 19.7558958,58.2126399 L14.8936667,64.4514286 C14.8171042,64.5358407 14.7002188,64.5873117 14.5828229,64.5873117 C14.4618542,64.5873117 14.3459896,64.5317231 14.2551354,64.4323842 Z" id="download"></path>
                            </g>
                        </g>
                    </g>
                </g>
            </g>
        </g>
    </g>
</svg>