<svg xmlns="http://www.w3.org/2000/svg" width="20" height="20" viewBox="0 0 20 20">
    <g fill="none" fill-rule="evenodd">
        <g>
            <g>
                <g>
                    <g>
                        <g>
                            <g>
                                <g>
                                    <g>
                                        <g transform="translate(-680 -590) translate(78 330) translate(602 140) translate(0 120)">
                                            <circle cx="10" cy="10" r="8.5" fill="#FFF" stroke="#DBDBDB" stroke-width=".5"/>
                                            <path fill="#001B94" d="M14.09 6.32c-.227 0-.41-.183-.41-.41 0-.226.183-.41.41-.41.226 0 .41.184.41.41 0 .227-.184.41-.41.41zm-.923.924c-.227 0-.41-.184-.41-.41 0-.227.183-.41.41-.41.226 0 .41.183.41.41 0 .226-.184.41-.41.41zm-.923.923c-.227 0-.41-.184-.41-.41 0-.227.183-.41.41-.41.226 0 .41.183.41.41 0 .226-.184.41-.41.41zm0 1.282c-.227 0-.41-.184-.41-.41 0-.227.183-.41.41-.41.226 0 .41.183.41.41 0 .226-.184.41-.41.41zm0 1.23c-.227 0-.41-.183-.41-.41 0-.226.183-.41.41-.41.226 0 .41.184.41.41 0 .227-.184.41-.41.41zm0 1.231c-.227 0-.41-.183-.41-.41 0-.227.183-.41.41-.41.226 0 .41.183.41.41 0 .227-.184.41-.41.41zm0 1.231c-.227 0-.41-.184-.41-.41 0-.227.183-.41.41-.41.226 0 .41.183.41.41 0 .226-.184.41-.41.41zm-1.282-4.974c-.227 0-.41-.184-.41-.41 0-.227.183-.41.41-.41.226 0 .41.183.41.41 0 .226-.184.41-.41.41zm-1.231 0c-.227 0-.41-.184-.41-.41 0-.227.183-.41.41-.41.226 0 .41.183.41.41 0 .226-.184.41-.41.41zm-1.282 0c-.227 0-.41-.184-.41-.41 0-.227.183-.41.41-.41.226 0 .41.183.41.41 0 .226-.184.41-.41.41zm-1.231 0c-.227 0-.41-.184-.41-.41 0-.227.183-.41.41-.41.227 0 .41.183.41.41 0 .226-.183.41-.41.41zm3.795 1.23c-.227 0-.41-.183-.41-.41 0-.226.183-.41.41-.41.226 0 .41.184.41.41 0 .227-.184.41-.41.41zm-.923.924c-.227 0-.41-.184-.41-.41 0-.227.183-.411.41-.411.226 0 .41.184.41.41 0 .227-.184.41-.41.41zm-.872.871c-.227 0-.41-.183-.41-.41 0-.227.183-.41.41-.41.227 0 .41.183.41.41 0 .227-.183.41-.41.41zm-.872.872c-.226 0-.41-.184-.41-.41 0-.227.184-.41.41-.41.227 0 .41.183.41.41 0 .226-.183.41-.41.41zm-.923.923c-.227 0-.41-.183-.41-.41 0-.227.183-.41.41-.41.227 0 .41.183.41.41 0 .227-.183.41-.41.41zm-1.282 0c-.227 0-.41-.183-.41-.41 0-.227.183-.41.41-.41.227 0 .41.183.41.41 0 .227-.183.41-.41.41zm-1.23 0c-.227 0-.411-.183-.411-.41 0-.227.184-.41.41-.41.227 0 .41.183.41.41 0 .227-.183.41-.41.41zm2.563 1.23c-.226 0-.41-.183-.41-.41 0-.226.184-.41.41-.41.227 0 .41.184.41.41 0 .227-.183.41-.41.41zm0 1.283c-.226 0-.41-.184-.41-.41 0-.227.184-.41.41-.41.227 0 .41.183.41.41 0 .226-.183.41-.41.41z"/>
                                        </g>
                                    </g>
                                </g>
                            </g>
                        </g>
                    </g>
                </g>
            </g>
        </g>
    </g>
</svg>
