<svg width="81" height="56" viewBox="0 0 81 56" fill="none" xmlns="http://www.w3.org/2000/svg">
<path d="M40.2055 12.8927H41.8576C48.2901 12.8927 54.7226 12.8809 61.1552 12.907C61.9182 12.9094 62.4745 12.7145 63.0236 12.1606C65.3627 9.80009 67.7588 7.49665 70.1122 5.15042C70.5638 4.69876 71.0298 4.48958 71.6787 4.49909C74.227 4.52999 76.7777 4.50622 79.326 4.51573C80.4622 4.52048 80.7974 5.0696 80.2293 6.03471C77.2507 11.0956 74.3245 16.1898 71.2508 21.1913C69.4418 24.1342 66.5679 25.4559 63.1852 25.6983C55.3526 26.2593 47.5175 26.8061 39.6825 27.3314C39.0336 27.3742 38.9266 27.6357 38.929 28.2086C38.948 32.2782 38.9409 36.3479 38.9385 40.4175C38.9385 42.6069 37.864 44.1092 35.948 44.6179C33.918 45.1575 32.0115 44.3565 30.9775 42.4738C28.5076 37.9762 26.0425 33.4787 23.6202 28.955C23.2494 28.2633 22.8643 27.9994 22.0585 28.0374C16.7884 28.2752 11.5135 28.4439 6.24341 28.6531C4.5604 28.7197 3.07944 28.2823 1.87899 27.0604C-0.022714 25.1255 0.0272057 22.1564 2.12384 20.4378C4.30129 18.6525 6.54292 16.9362 8.85112 15.3269C11.1118 13.7509 13.7052 13.0021 16.4579 12.9189C18.5023 12.8571 20.549 12.8785 22.5933 12.9046C23.1401 12.9118 23.5299 12.7406 23.934 12.3817C27.9466 8.81358 31.9806 5.26928 35.9932 1.7012C37.2887 0.548293 38.7364 0.0776203 40.4218 0.576818C42.7229 1.25668 43.8306 3.46266 42.9867 5.70667C42.1024 8.06003 41.173 10.3991 40.2055 12.8904V12.8927ZM78.2753 6.11791C76.1287 6.11791 74.1438 6.13455 72.1589 6.10603C71.6454 6.0989 71.2817 6.25103 70.9157 6.61473C68.5385 8.97998 66.1186 11.3001 63.7557 13.6796C63.1662 14.2739 62.5719 14.5163 61.7304 14.5139C46.9375 14.4902 32.1423 14.4997 17.3494 14.4925C15.0887 14.4925 12.9065 14.8872 10.924 15.9735C8.02626 17.5638 5.53264 19.7413 2.99387 21.8284C1.68169 22.9076 1.83383 24.8069 3.09133 26.0121C3.93759 26.8251 4.95975 27.0866 6.11029 27.0414C10.4937 26.875 14.8795 26.73 19.263 26.5708C20.1995 26.5375 21.1361 26.4709 22.1987 26.4139C21.5807 25.2752 21.0268 24.2364 20.4563 23.2047C20.2043 22.746 20.2067 22.3204 20.675 22.0447C21.1742 21.7499 21.5854 21.9425 21.8612 22.4345C21.9776 22.6414 22.0894 22.8505 22.2035 23.0597C25.5433 29.1761 28.8832 35.2925 32.2231 41.4112C32.5083 41.9365 32.8007 42.4524 33.3427 42.7638C34.265 43.2915 35.2088 43.3176 36.1382 42.8042C37.0344 42.3097 37.3553 41.5134 37.3506 40.5007C37.3315 34.7077 37.341 28.917 37.3434 23.1239C37.3434 22.513 37.2056 21.738 38.1564 21.7642C39.0859 21.788 38.929 22.5629 38.9409 23.1715C38.9527 23.7063 38.9955 24.2483 38.9313 24.7736C38.8291 25.608 39.131 25.8077 39.9511 25.7459C47.7244 25.1706 55.5023 24.6667 63.2756 24.0748C66.3944 23.8371 68.8024 22.3989 70.4022 19.5915C72.8102 15.365 75.3252 11.2002 77.7951 7.00934C77.9425 6.75974 78.0708 6.50301 78.2824 6.11554L78.2753 6.11791ZM25.7644 12.8927C29.991 12.8927 33.9584 12.8856 37.9282 12.9022C38.3608 12.9022 38.5463 12.7382 38.6936 12.3508C39.6088 9.94272 40.5573 7.54657 41.4725 5.13616C41.986 3.77881 41.444 2.6473 40.0795 2.16712C39.0003 1.78678 38.0447 2.034 37.1984 2.7828C35.8886 3.94284 34.5764 5.09812 33.2666 6.25579C30.8301 8.41184 28.3935 10.5679 25.7668 12.8927H25.7644Z" fill="#4B5772"/>
<path d="M52.7805 44.0474C52.7567 37.4984 58.0221 32.2141 64.583 32.1951C70.987 32.176 76.3118 37.5008 76.3284 43.9357C76.3427 50.5037 71.0892 55.8142 64.5592 55.8285C58.0744 55.8428 52.8019 50.5703 52.7781 44.0451L52.7805 44.0474ZM54.3803 44.0118C54.3875 49.6194 58.9135 54.2049 64.4594 54.2263C70.1193 54.2477 74.7357 49.6551 74.7262 44.007C74.7191 38.3756 70.1312 33.7711 64.5473 33.7949C58.9135 33.8163 54.3732 38.378 54.3803 44.0118Z" fill="#4B5772"/>
<path d="M15.9017 17.3404C16.1965 17.3404 16.4912 17.3332 16.786 17.3404C17.2495 17.3546 17.4967 17.6351 17.5253 18.0654C17.5586 18.5432 17.2971 18.8736 16.8145 18.914C16.2583 18.9592 15.6949 18.9425 15.1363 18.9283C14.6109 18.914 14.2924 18.6216 14.3066 18.0963C14.3233 17.5638 14.6632 17.319 15.1933 17.3332C15.4286 17.3404 15.664 17.3332 15.9017 17.3332V17.3404Z" fill="#4B5772"/>
<path d="M21.0696 17.3404C21.3643 17.3404 21.6591 17.3308 21.9539 17.3404C22.4174 17.357 22.6575 17.6399 22.6908 18.0678C22.7241 18.5004 22.4959 18.8522 22.0632 18.8926C21.4214 18.952 20.7677 18.9497 20.1235 18.8998C19.6861 18.8665 19.4531 18.5265 19.4745 18.0891C19.4935 17.6589 19.7241 17.3665 20.1877 17.3404C20.4824 17.3237 20.7772 17.338 21.072 17.3356L21.0696 17.3404Z" fill="#4B5772"/>
<path d="M26.2375 17.3404C26.5322 17.3404 26.827 17.3308 27.1218 17.3404C27.5853 17.3594 27.8254 17.6446 27.8539 18.0725C27.8848 18.5051 27.6566 18.8546 27.2216 18.895C26.5798 18.952 25.9261 18.952 25.2819 18.8997C24.8445 18.8641 24.6163 18.5242 24.6377 18.0868C24.659 17.6541 24.892 17.3665 25.3532 17.3427C25.6479 17.3261 25.9427 17.3404 26.2375 17.3404Z" fill="#4B5772"/>
<path d="M31.4244 17.3404C31.7191 17.3404 32.0139 17.3261 32.3087 17.3427C32.7722 17.3689 33.0099 17.6684 33.0218 18.0939C33.0384 18.5693 32.7627 18.8855 32.2801 18.9164C31.7215 18.952 31.1605 18.9449 30.6019 18.9235C30.0742 18.9021 29.7794 18.5979 29.8079 18.0678C29.8341 17.5781 30.1383 17.3332 30.6304 17.3356C30.8966 17.3356 31.1605 17.3356 31.4267 17.3356C31.4267 17.338 31.4267 17.3404 31.4267 17.3427L31.4244 17.3404Z" fill="#4B5772"/>
<path d="M36.5447 17.338C36.8395 17.338 37.1342 17.3308 37.429 17.338C37.9377 17.3546 38.1921 17.6755 38.1873 18.1367C38.1825 18.605 37.8854 18.9021 37.3981 18.9211C36.868 18.9425 36.3379 18.9378 35.8078 18.9259C35.2824 18.914 34.9615 18.6383 34.971 18.1082C34.9782 17.5733 35.3086 17.3213 35.8387 17.3308C36.074 17.3356 36.3094 17.3308 36.5447 17.3308V17.338Z" fill="#4B5772"/>
<path d="M41.7102 17.338C42.005 17.338 42.2997 17.3285 42.5945 17.338C43.1008 17.357 43.3599 17.6732 43.3528 18.1367C43.3457 18.6074 43.0485 18.9021 42.5636 18.9211C42.0335 18.9425 41.5034 18.9378 40.9733 18.9259C40.448 18.914 40.1294 18.6406 40.1366 18.1082C40.1437 17.5686 40.4741 17.3213 41.0042 17.3308C41.2395 17.3356 41.4749 17.3308 41.7102 17.3308V17.338Z" fill="#4B5772"/>
<path d="M47.142 20.1311C47.6007 20.1834 48.5207 19.8934 48.5017 20.9322C48.4827 21.9425 47.5746 21.6786 46.9399 21.7214C46.6475 21.7404 46.3528 21.7262 46.0604 21.7024C45.5802 21.662 45.3044 21.4052 45.3139 20.9013C45.3211 20.395 45.6111 20.1573 46.0936 20.1359C46.386 20.1216 46.6808 20.1335 47.1443 20.1335L47.142 20.1311Z" fill="#4B5772"/>
<path d="M52.0198 20.1002C52.7068 20.1953 53.6434 19.8649 53.6601 20.887C53.6767 21.971 52.7116 21.7143 52.0579 21.7095C51.4398 21.7048 50.5199 21.9924 50.4961 20.9465C50.4699 19.7864 51.4779 20.2595 52.0198 20.1026V20.1002Z" fill="#4B5772"/>
<path d="M56.9976 21.7048C56.5768 21.6287 55.6521 21.9805 55.6545 20.9132C55.6568 19.8411 56.5768 20.1882 57.1901 20.1264C57.4801 20.0978 57.7772 20.1192 58.0696 20.1359C58.5546 20.1644 58.8446 20.433 58.8446 20.9179C58.8446 21.4052 58.5427 21.6691 58.0649 21.7024C57.7725 21.7238 57.4777 21.7071 56.9952 21.7071L56.9976 21.7048Z" fill="#4B5772"/>
<path d="M64.7945 45.3192C64.3381 45.3097 64.2454 45.5284 64.1123 45.6686C63.1139 46.7241 62.1179 47.7867 61.129 48.8516C60.713 49.2985 60.2495 49.8405 59.6457 49.2866C58.9872 48.6828 59.553 48.1789 59.988 47.7177C60.984 46.6575 61.9539 45.5735 62.9808 44.5443C63.4015 44.1235 63.3611 43.8715 62.9689 43.4722C61.8897 42.3692 60.858 41.221 59.7978 40.1014C59.3842 39.6664 59.1275 39.1909 59.6528 38.7227C60.1354 38.2924 60.5751 38.5729 60.9555 38.9841C62.0038 40.118 63.0759 41.2258 64.1028 42.3763C64.4499 42.7662 64.6495 42.759 64.9942 42.3763C66.0259 41.2305 67.098 40.118 68.1463 38.9865C68.5266 38.5753 68.9569 38.2995 69.449 38.7298C69.9981 39.21 69.7057 39.6806 69.3063 40.1061C68.2295 41.2543 67.1717 42.4167 66.0734 43.5435C65.7359 43.8905 65.6978 44.0926 66.0568 44.4587C67.1574 45.5807 68.2129 46.7479 69.2897 47.896C69.6843 48.3168 70.01 48.7708 69.4537 49.2652C68.9117 49.7478 68.4886 49.3936 68.094 48.9705C67.0861 47.8817 66.0639 46.8073 65.056 45.7186C64.9158 45.5688 64.8278 45.3715 64.7945 45.3192Z" fill="#4B5772"/>
</svg>
