<svg width="44" height="45" viewBox="0 0 44 45" fill="none" xmlns="http://www.w3.org/2000/svg">
<path fill-rule="evenodd" clip-rule="evenodd" d="M15.6348 15.1895C14.8951 15.1895 14.2949 15.7997 14.2949 16.5509V17.3522C14.2949 17.9087 14.5065 18.4438 14.8851 18.8464L19.0333 23.2573L19.0351 23.2545C19.836 24.0743 20.2866 25.1826 20.2866 26.3382V30.252C20.2866 30.5136 20.5602 30.6805 20.7873 30.5572L23.1497 29.2699C23.5063 29.0751 23.7288 28.6967 23.7288 28.2859V26.328C23.7288 25.1789 24.173 24.0753 24.9666 23.2573L29.1148 18.8464C29.4925 18.4438 29.7041 17.9087 29.7041 17.3522V16.5509C29.7041 15.7997 29.1048 15.1895 28.3651 15.1895H15.6348Z" stroke="#000099" stroke-width="1.25" stroke-linecap="round" stroke-linejoin="round"/>
</svg>
