<svg width="8" height="10" viewBox="0 0 8 10" fill="none" xmlns="http://www.w3.org/2000/svg">
<path d="M3.28831 0.666269L5.18104 4.31427L7.39594 4.31427C7.73019 4.31427 8 4.62055 8 4.99998C8 5.37941 7.73019 5.6857 7.39594 5.6857L5.18104 5.6857L3.28831 9.3337C3.21582 9.47998 3.07487 9.57141 2.92587 9.57141C2.64398 9.57141 2.44262 9.26513 2.51914 8.95884L3.36482 5.6857L1.15395 5.6857L0.610298 6.71884C0.574054 6.78741 0.505593 6.82855 0.437133 6.82855L0.235779 6.82855L0.203562 6.82855C0.0706681 6.82855 -0.025982 6.68684 0.00623499 6.54513L0.300212 5.21027L0.348537 4.99998L0.312293 4.82627L0.267995 4.63427L0.0746953 3.7657L0.00623486 3.45941C-0.0259822 3.31313 0.0706679 3.17598 0.203562 3.17598L0.352564 3.17598L0.437133 3.17598C0.50962 3.17598 0.574053 3.21713 0.610297 3.2857L1.15395 4.31427L3.36885 4.31427L2.52316 1.04112C2.44262 0.73484 2.64398 0.428554 2.92587 0.428554C3.07487 0.428554 3.21582 0.519983 3.28831 0.666269Z" fill="#AFE4FF"/>
</svg>
