<svg width="32" height="32" viewBox="0 0 32 32" fill="none" xmlns="http://www.w3.org/2000/svg">
<rect x="0.5" y="31.5" width="31" height="31" rx="7.5" transform="rotate(-90 0.5 31.5)" fill="#EAF8FF"/>
<rect x="0.5" y="31.5" width="31" height="31" rx="7.5" transform="rotate(-90 0.5 31.5)" stroke="#F4DEDF"/>
<path d="M17.5263 24H32C32 28.4183 28.4183 32 24 32H7L17.5263 24Z" fill="#AFE4FF"/>
<path d="M22.5289 25.3318C22.3198 24.8816 21.6798 24.8816 21.4708 25.3318L20.8695 26.6264C20.8574 26.6526 20.8326 26.6706 20.804 26.6741L19.3869 26.8458C18.8941 26.9055 18.6964 27.5142 19.0599 27.8521L20.1054 28.824C20.1265 28.8437 20.136 28.8728 20.1305 28.9011L19.8559 30.3019C19.7604 30.789 20.2782 31.1652 20.7119 30.9238L21.9593 30.2299C21.9845 30.2158 22.0152 30.2158 22.0404 30.2299L23.2878 30.9238C23.7215 31.1652 24.2393 30.789 24.1438 30.3019L23.8692 28.9011C23.8637 28.8728 23.8732 28.8437 23.8943 28.824L24.9398 27.8521C25.3033 27.5142 25.1055 26.9055 24.6128 26.8458L23.1957 26.6741C23.1671 26.6706 23.1423 26.6526 23.1302 26.6264L22.5289 25.3318Z" fill="white"/>
</svg>
