<svg width="16" height="16" viewBox="0 0 16 16" fill="none" xmlns="http://www.w3.org/2000/svg">
<rect x="0.5" y="0.5" width="15" height="15" rx="3.5" fill="white" stroke="#AFE4FF"/>
<path d="M8.5 11H16C16 13.2091 14.2091 15 12 15H4L8.5 11Z" fill="#AFE4FF"/>
<path d="M11.2645 11.6659C11.1599 11.4408 10.8399 11.4408 10.7354 11.6659L10.4348 12.3132C10.4287 12.3263 10.4163 12.3353 10.402 12.337L9.69345 12.4229C9.44707 12.4528 9.34819 12.7571 9.52996 12.9261L10.0527 13.412C10.0633 13.4218 10.068 13.4364 10.0652 13.4505L9.92795 14.1509C9.88021 14.3945 10.1391 14.5826 10.356 14.4619L10.9797 14.1149C10.9923 14.1079 11.0076 14.1079 11.0202 14.1149L11.6439 14.4619C11.8607 14.5826 12.1196 14.3945 12.0719 14.1509L11.9346 13.4505C11.9318 13.4364 11.9366 13.4218 11.9471 13.412L12.4699 12.9261C12.6517 12.7571 12.5528 12.4528 12.3064 12.4229L11.5979 12.337C11.5835 12.3353 11.5711 12.3263 11.5651 12.3132L11.2645 11.6659Z" fill="white"/>
</svg>
